<mxfile host="65bd71144e">
    <diagram id="YzUoQij953maOpbc3Z_9" name="Page-1">
        <mxGraphModel dx="940" dy="595" grid="1" gridSize="10" guides="1" tooltips="1" connect="1" arrows="1" fold="1" page="1" pageScale="1" pageWidth="850" pageHeight="1100" math="0" shadow="0">
            <root>
                <mxCell id="0"/>
                <mxCell id="1" parent="0"/>
                <mxCell id="6" value="input" style="edgeStyle=none;html=1;" parent="1" source="2" target="3" edge="1">
                    <mxGeometry relative="1" as="geometry"/>
                </mxCell>
                <mxCell id="2" value="textfile" style="html=1;" parent="1" vertex="1">
                    <mxGeometry x="370" y="140" width="110" height="50" as="geometry"/>
                </mxCell>
                <mxCell id="7" value="creates" style="edgeStyle=none;html=1;" parent="1" source="3" target="4" edge="1">
                    <mxGeometry relative="1" as="geometry"/>
                </mxCell>
                <mxCell id="3" value="ScratchCardParser" style="html=1;" parent="1" vertex="1">
                    <mxGeometry x="370" y="260" width="110" height="50" as="geometry"/>
                </mxCell>
                <mxCell id="8" value="consumes" style="edgeStyle=none;html=1;" parent="1" source="4" target="5" edge="1">
                    <mxGeometry relative="1" as="geometry"/>
                </mxCell>
                <mxCell id="4" value="ScratchCard" style="html=1;" parent="1" vertex="1">
                    <mxGeometry x="370" y="380" width="110" height="50" as="geometry"/>
                </mxCell>
                <mxCell id="5" value="Scratcher" style="html=1;" parent="1" vertex="1">
                    <mxGeometry x="370" y="510" width="110" height="50" as="geometry"/>
                </mxCell>
                <mxCell id="13" style="edgeStyle=none;html=1;dashed=1;endArrow=none;endFill=0;" parent="1" source="11" target="3" edge="1">
                    <mxGeometry relative="1" as="geometry"/>
                </mxCell>
                <mxCell id="11" value="&lt;span style=&quot;font-size: 11px;&quot;&gt;parses text lines + creates a ScratcCard for each line&lt;/span&gt;" style="shape=note2;boundedLbl=1;whiteSpace=wrap;html=1;size=25;verticalAlign=top;align=center;" parent="1" vertex="1">
                    <mxGeometry x="570" y="240" width="220" height="90" as="geometry"/>
                </mxCell>
                <mxCell id="15" style="edgeStyle=none;html=1;dashed=1;endArrow=none;endFill=0;" parent="1" source="14" target="4" edge="1">
                    <mxGeometry relative="1" as="geometry"/>
                </mxCell>
                <mxCell id="14" value="&lt;span style=&quot;font-size: 11px;&quot;&gt;holds winning and owning numbers in container&lt;/span&gt;" style="shape=note2;boundedLbl=1;whiteSpace=wrap;html=1;size=25;verticalAlign=top;align=center;" parent="1" vertex="1">
                    <mxGeometry x="570" y="360" width="220" height="90" as="geometry"/>
                </mxCell>
                <mxCell id="17" style="edgeStyle=none;html=1;dashed=1;endArrow=none;endFill=0;" parent="1" source="16" target="5" edge="1">
                    <mxGeometry relative="1" as="geometry"/>
                </mxCell>
                <mxCell id="16" value="&lt;span style=&quot;font-size: 11px;&quot;&gt;calculates Points for each ScratchCard,&lt;/span&gt;&lt;br style=&quot;font-size: 11px;&quot;&gt;&lt;span style=&quot;font-size: 11px;&quot;&gt;accumulates points of pile&lt;/span&gt;" style="shape=note2;boundedLbl=1;whiteSpace=wrap;html=1;size=25;verticalAlign=top;align=center;" parent="1" vertex="1">
                    <mxGeometry x="570" y="490" width="220" height="90" as="geometry"/>
                </mxCell>
                <mxCell id="18" value="1" style="text;html=1;align=center;verticalAlign=middle;resizable=0;points=[];autosize=1;strokeColor=none;fillColor=none;" parent="1" vertex="1">
                    <mxGeometry x="425" y="230" width="30" height="30" as="geometry"/>
                </mxCell>
                <mxCell id="19" value="1" style="text;html=1;align=center;verticalAlign=middle;resizable=0;points=[];autosize=1;strokeColor=none;fillColor=none;" parent="1" vertex="1">
                    <mxGeometry x="425" y="350" width="30" height="30" as="geometry"/>
                </mxCell>
                <mxCell id="20" value="*" style="text;html=1;align=center;verticalAlign=middle;resizable=0;points=[];autosize=1;strokeColor=none;fillColor=none;" parent="1" vertex="1">
                    <mxGeometry x="425" y="305" width="30" height="30" as="geometry"/>
                </mxCell>
                <mxCell id="21" value="*" style="text;html=1;align=center;verticalAlign=middle;resizable=0;points=[];autosize=1;strokeColor=none;fillColor=none;" parent="1" vertex="1">
                    <mxGeometry x="420" y="480" width="30" height="30" as="geometry"/>
                </mxCell>
                <mxCell id="22" value="1" style="text;html=1;align=center;verticalAlign=middle;resizable=0;points=[];autosize=1;strokeColor=none;fillColor=none;" parent="1" vertex="1">
                    <mxGeometry x="420" y="430" width="30" height="30" as="geometry"/>
                </mxCell>
            </root>
        </mxGraphModel>
    </diagram>
</mxfile>